<?xml version="1.0" standalone="no"?>
<!DOCTYPE svg PUBLIC "-//W3C//DTD SVG 20010904//EN"
 "http://www.w3.org/TR/2001/REC-SVG-20010904/DTD/svg10.dtd">
<svg version="1.0" xmlns="http://www.w3.org/2000/svg"
 width="400.000000pt" height="400.000000pt" viewBox="0 0 400.000000 400.000000"
 preserveAspectRatio="xMidYMid meet">
<metadata>
Created by potrace 1.11, written by Peter Selinger 2001-2013
</metadata>
<g transform="translate(0.000000,400.000000) scale(0.100000,-0.100000)"
fill="#000000" stroke="none">
<path d="M329 3095 c-1 -5 -2 -516 -3 -1135 l-2 -1126 322 0 321 -1 -1 116 -1
116 -183 0 -182 0 2 904 3 903 180 2 180 1 0 115 0 115 -317 0 c-207 0 -318
-3 -319 -10z"/>
<path d="M3030 2987 l0 -117 63 1 c34 1 116 1 182 0 l120 -1 0 -900 0 -900
-35 -1 c-19 -1 -101 -1 -182 -2 l-148 0 0 -117 0 -116 320 0 320 -1 0 1136 0
1136 -320 0 -320 0 0 -118z"/>
<path d="M2070 2584 c-90 -17 -212 -90 -267 -159 -15 -19 -31 -35 -34 -35 -4
0 -7 37 -8 82 -1 45 -4 84 -7 87 -2 2 -60 5 -129 5 l-125 1 0 -100 c-1 -109
-1 -890 0 -1047 l0 -98 149 0 148 0 0 395 0 395 39 47 c60 73 125 133 168 155
53 27 127 26 166 -2 66 -47 65 -38 68 -537 l3 -453 150 0 150 0 -2 458 c-1
415 -3 464 -20 532 -45 176 -160 270 -339 276 -47 1 -96 0 -110 -2z"/>
</g>
</svg>
